<?xml version="1.0" encoding="utf-8"?>
<!-- Generator: Adobe Illustrator 27.5.0, SVG Export Plug-In . SVG Version: 6.00 Build 0)  -->
<svg version="1.1" xmlns="http://www.w3.org/2000/svg" xmlns:xlink="http://www.w3.org/1999/xlink" x="0px" y="0px"
	 viewBox="0 0 1200 800" style="enable-background:new 0 0 1200 800;" xml:space="preserve">
<g id="Background">
	<rect style="fill:#FCF3F0;" width="1200" height="800"/>
</g>
<g id="Graphic_Elements">
	<g>
		<g>
			<g>
				<path style="fill:#C1D9C8;" d="M608.946,261.451c-0.024,0.003-0.048,0.005-0.072,0.008c-0.022,0.006-0.043,0.012-0.064,0.016
					c0.023-0.002,0.05-0.004,0.073-0.007C608.904,261.463,608.926,261.457,608.946,261.451z"/>
				<path style="fill:#C1D9C8;" d="M608.6,261.535c-0.017,0.006-0.032,0.012-0.049,0.017c-0.018,0.009-0.037,0.017-0.057,0.026
					c0.008-0.002,0.015-0.004,0.024-0.007C608.544,261.56,608.575,261.546,608.6,261.535z"/>
				<path style="fill:#C1D9C8;" d="M735.244,318.779c-0.75-10.571-4.216-20.776-10.261-29.495
					c-5.611-8.091-12.936-14.748-21.354-19.824c-17.846-10.764-39.059-15.018-59.594-16.626
					c-14.328-1.123-28.809-1.115-42.563,3.595c-7.082,2.426-13.699,6.144-18.265,12.17c-0.935,1.235-1.731,2.601-2.392,4.035
					c-0.705,0.591-1.269,1.306-1.248,2.293c0.007,0.363,0.016,0.726,0.023,1.089c-0.567,2.112-0.815,4.301-0.621,6.458
					c0.111,1.237,0.404,2.427,0.84,3.564c0.676,31.355,1.505,62.706,2.511,94.052c1.124,35.048,2.455,70.09,3.993,105.122
					c0.864,19.694,1.794,39.385,2.789,59.073c0.209,0.264,0.418,0.527,0.627,0.791c0.703,0.399,1.452,0.607,2.25,0.623
					c1.994,0.24,3.987,0.016,5.964-0.306c11.971-1.947,23.99-3.708,35.928-5.852c4.675-0.839,9.359-2.078,13.671-4.104
					c3.378-1.586,6.78-3.735,8.669-7.067c2.593-4.573,1.584-10.86,1.392-15.863l-2.831-73.657
					c-0.455-11.849-0.91-23.697-1.365-35.546c20.872-3.18,41.313-11.389,57.067-25.332
					C727.194,363.173,736.833,341.192,735.244,318.779z M712.989,338.816c-1.867,11.629-6.575,22.718-13.793,32.034
					c-2.84,3.475-5.971,6.703-9.385,9.62c-0.894,0.764-1.805,1.507-2.732,2.23c-0.137,0.107-0.276,0.214-0.415,0.32
					c-0.419,0.304-0.837,0.608-1.259,0.906c-1.988,1.397-4.039,2.704-6.143,3.922c-0.261,0.151-0.524,0.298-0.786,0.446
					c-0.155,0.086-0.309,0.176-0.454,0.252c-1.114,0.581-2.24,1.138-3.378,1.67c-0.684,0.321-1.377,0.619-2.068,0.922
					c-0.103,0.043-0.213,0.093-0.308,0.137c-0.104,0.045-0.206,0.093-0.309,0.138c-0.592,0.233-1.185,0.46-1.78,0.68
					c-0.985,0.364-1.976,0.708-2.971,1.037c-0.458,0.135-0.916,0.272-1.375,0.401c-1.065,0.297-2.134,0.576-3.209,0.836
					c-0.415,0.087-0.831,0.176-1.248,0.257c-1.247,0.243-2.499,0.458-3.754,0.651c-0.331-0.11-1.639,0.214-1.936,0.245
					c-1.329,0.139-2.661,0.25-3.993,0.332c-0.666,0.041-1.332,0.076-1.999,0.103c-0.257,0.011-0.545-0.001-0.802,0.027
					c-3.993,0.116-7.864,0.932-11.573,2.465c-1.846,0.763-5.949,2.317-5.851,4.864c1.273,33.146,2.547,66.292,3.821,99.437
					c0.177,4.628,0.355,9.255,0.533,13.882c0.153,3.972,0.601,8.082,0.154,12.053c-0.224,1.181-0.576,2.295-1.127,3.33
					c-3.224,0.527-6.449,1.049-9.673,1.573c-4.825,0.785-9.651,1.57-14.475,2.354c-1.717-34.18-3.242-68.37-4.566-102.567
					c-1.357-35.04-2.507-70.089-3.45-105.142c-0.385-14.301-0.723-28.603-1.039-42.906c0.888-0.703,1.789-1.638,1.309-2.349
					c-0.601-0.889-1.063-1.828-1.422-2.794c-0.065-3.016-0.137-6.032-0.199-9.048c0.711-2.239,1.818-4.329,3.222-6.231
					c0.669-0.776,1.381-1.511,2.152-2.187c-0.359,0.274-0.066-0.053,0.241-0.249c0.049-0.032,0.099-0.063,0.148-0.095
					c0.149-0.119,0.301-0.235,0.442-0.36c-0.129,0.115-0.226,0.198-0.327,0.285c0.235-0.153,0.468-0.308,0.706-0.455
					c-0.102,0.045-0.206,0.09-0.327,0.143c0.072-0.031,0.194-0.085,0.336-0.148c0.022-0.014,0.043-0.029,0.065-0.042
					c0.053-0.032,0.114-0.065,0.176-0.098c0.084-0.031,0.174-0.064,0.269-0.099c0.015-0.004,0.03-0.007,0.045-0.011
					c0.006-0.003,0.012-0.005,0.017-0.008c-0.018,0.005-0.034,0.01-0.052,0.015c0.036-0.014,0.072-0.027,0.108-0.041
					c0.018-0.008,0.037-0.016,0.055-0.025c0.006-0.001,0.013-0.003,0.019-0.005c-0.01,0.005-0.016,0.007-0.025,0.012
					c0.014-0.006,0.03-0.012,0.045-0.017c0.056-0.014,0.11-0.029,0.166-0.043c-0.023,0.002-0.048,0.005-0.071,0.007
					c0.01-0.003,0.019-0.007,0.029-0.011c0.035-0.004,0.07-0.008,0.106-0.013c0.143-0.035,0.286-0.069,0.427-0.11
					c-0.133,0.038-0.238,0.068-0.356,0.102c0.13-0.017,0.262-0.032,0.392-0.047c0.063-0.007,0.127-0.01,0.19-0.016
					c0.503-0.063,1.056-0.105,0.752-0.066c0.486-0.044,0.972-0.094,1.458-0.127c0.65-0.044,1.301-0.071,1.95-0.102
					c0.343-0.004,0.687-0.01,1.03-0.011c2.867-0.009,5.735,0.08,8.599,0.212c2.619,0.121,5.237,0.29,7.85,0.511
					c1.283,0.108,2.566,0.229,3.847,0.363c0.526,0.055,1.051,0.113,1.577,0.173c0.02,0.004,0.815,0.098,1.002,0.122
					c5.336,0.69,10.643,1.618,15.883,2.841c5.55,1.296,11.016,2.94,16.339,4.979c12.018,4.837,23.172,11.943,31.404,22.063
					C711.493,305.596,715.293,322.304,712.989,338.816z"/>
				<path style="fill:#C1D9C8;" d="M608.477,261.587c-0.192,0.087-0.388,0.176-0.555,0.25c-0.002,0.002-0.006,0.004-0.009,0.006
					c0.241-0.106,0.432-0.191,0.583-0.261C608.49,261.584,608.484,261.585,608.477,261.587z"/>
				<path style="fill:#C1D9C8;" d="M607.093,262.372c-0.053,0.042-0.104,0.083-0.155,0.126c-0.082,0.069-0.153,0.148-0.234,0.219
					c0.106-0.08,0.269-0.216,0.504-0.419C607.169,262.323,607.13,262.347,607.093,262.372z"/>
				<path style="fill:#C1D9C8;" d="M608.518,261.572c-0.007,0.003-0.015,0.007-0.022,0.01c0.239-0.057,0.474-0.108,0.664-0.141
					c-0.089,0.008-0.176,0.017-0.276,0.027C608.754,261.505,608.63,261.541,608.518,261.572z"/>
				<path style="fill:#C1D9C8;" d="M609.16,261.441c0.633-0.063,0.976-0.101,1.12-0.12c-0.25,0.023-0.502,0.04-0.752,0.066
					c-0.125,0.016-0.247,0.033-0.351,0.05C609.172,261.439,609.166,261.44,609.16,261.441z"/>
			</g>
			<g>
				<path style="fill:#C1D9C8;" d="M684.757,313c-0.675-4.222-2.179-8.177-4.702-11.655c-2.187-3.015-5.413-5.309-8.751-6.894
					c-8.102-3.848-17.634-4.122-26.436-3.988c-2.885,0.044-5.838,0.607-8.507,1.721c-1.883,0.787-4.716,2.255-5.854,4.113
					c-0.461,0.753-0.835,1.624-0.83,2.469c-1.572,0.628-3.08,1.435-4.28,2.562c-1.325,1.244-2.441,2.554-2.202,4.505
					c2.421,19.778,4.842,39.556,7.262,59.333c0.324,2.652,4.76,2.909,6.574,3.019c11.177,0.676,22.448-3.484,31.353-10.039
					c6.919-5.093,11.922-12.516,14.596-20.636C685.525,329.778,686.04,321.022,684.757,313z M651.589,354.556
					c-0.001-0.009-0.002-0.018-0.003-0.027c-0.076,0.062-0.15,0.123-0.225,0.186c-0.002,0.001-0.003,0.002-0.005,0.003
					c0.083-0.068,0.159-0.131,0.23-0.189c-2.123-17.341-4.245-34.681-6.368-52.023c-0.062-0.007-0.118-0.014-0.185-0.022
					c0.058,0.004,0.116,0.006,0.174,0.01c0.003,0.001,0.007,0.001,0.01,0.001c0,0,0,0,0,0c0.033,0.002,0.067,0.003,0.1,0.005
					c0.547,0.039,1.514,0.186,0.728,0.103c0.516,0.066,1.031,0.131,1.544,0.214c1.208,0.197,2.401,0.466,3.583,0.776
					c1.585,0.544,3.108,1.224,4.555,2.071c1.805,1.317,3.338,2.902,4.582,4.761c2.619,4.877,3.28,10.565,3.295,16.046
					c-0.178,6.384-1.452,12.698-4.154,18.498c-1.319,2.471-2.893,4.771-4.749,6.868c-0.981,0.933-2.011,1.785-3.058,2.646
					C653.033,353.345,652.234,354.086,651.589,354.556z"/>
				<path style="fill:#C1D9C8;" d="M651.586,354.529L651.586,354.529c0.019-0.015,0.038-0.03,0.057-0.046
					C651.624,354.498,651.606,354.513,651.586,354.529z"/>
				<path style="fill:#C1D9C8;" d="M645.455,302.52c-0.079-0.009-0.159-0.017-0.239-0.026c0.001,0.004,0.001,0.008,0.002,0.011
					c0.377,0.047,0.649,0.077,0.826,0.096C645.848,302.577,645.652,302.543,645.455,302.52z"/>
			</g>
		</g>
		<path style="fill:#617E83;" d="M552.307,277.35c1.003-2.276,0.821-3.601-1.29-5.052c-3.816-2.624-7.43-5.544-11.128-8.341
			c-0.24-0.177-0.482-0.353-0.723-0.529c-1.77-1.296-3.548-2.58-5.288-3.914c-1.087-0.833-1.846-0.86-2.439,0.536
			c-3.989,9.385-10.466,17.353-15.008,26.424c-0.626,0.794-1.42,1.508-1.846,2.398c-1.388,2.902-2.853,2.906-4.555,0.311
			c-1.678-2.539-3.707-4.758-6.074-6.666c0,0.001,0,0.001,0,0.001c-0.71-0.772-1.42-1.544-2.131-2.316
			c-0.473-1.258-1.282-2.119-2.685-2.278c-0.694-0.508-1.387-1.016-2.081-1.524c-1.381-1.891-3.404-2.677-5.555-3.242
			c-0.001,0-0.002-0.001-0.002-0.001l0.001,0.001c0,0-0.001,0-0.001,0c0.002,0.003,0.005,0.005,0.007,0.008
			c-1.216-1.103-2.665-1.577-4.29-1.569c0,0,0,0,0,0c-2.956-0.511-5.799-1.413-8.594-2.48c-8.822-2.801-17.698-2.971-26.626-0.54
			c-0.001,0-0.002,0-0.004,0.001c-3.299,0.808-6.487,1.874-9.415,3.671c-6.527,4.005-12.058,9.205-17.452,14.559
			c-3.544,3.516-7.18,6.98-9.398,11.587c-1.337,1.182-1.949,2.8-2.616,4.384c-0.001,0-0.001,0.001-0.002,0.001
			c-0.594,0.847-1.302,1.643-1.236,2.783c-0.252,0.396-0.58,0.762-0.747,1.191c-8.787,22.456-15.899,45.371-19.001,69.393
			c-0.179,1.384,0.457,3.177-1.433,3.988c-0.095,2.151-0.191,4.301-0.286,6.451c-0.064,1.434-0.127,2.867-0.19,4.301
			c-0.127,2.867-0.254,5.735-0.381,8.601c-0.063,1.434-0.127,2.867-0.191,4.301c-0.095,2.15-0.191,4.301-0.286,6.451
			c-0.095,2.151-0.19,4.301-0.286,6.451c0.277-0.002,0.554-0.004,0.83-0.006c0.16,0.07,0.326,0.123,0.495,0.163
			c-0.234,3.879-0.651,7.762,0.236,11.616c0,0.002,0,0.005,0.001,0.008c-0.155,0.151-0.162,0.309-0.022,0.473
			c-0.24,4.445-0.07,8.863,0.84,13.233c0,0.001,0,0.003,0,0.003c-0.148,0.15-0.149,0.3-0.002,0.451
			c-0.128,2.964,0.162,5.876,1.055,8.715c-0.008-0.006-0.011-0.013-0.018-0.02c-0.075,1.25-0.252,2.517,0.532,3.635
			c-0.005-0.005-0.007-0.01-0.013-0.015c-0.072,1.48-0.212,2.969,0.579,4.33c-0.107,1.266-0.126,2.518,0.544,3.665
			c0.009,0.016,0.011,0.032,0.021,0.047c-0.204,3,0.765,5.798,1.482,8.639c0.412,1.736,0.494,3.568,1.49,5.133
			c0.001,0.001,0,0.001,0.001,0.001c0.34,3.363,1.845,6.382,2.803,9.563c5.476,18.173,23.884,26.933,40.476,28.227
			c6.091,0.99,12.19,1.803,18.368,0.819c0.001,0,0.002,0,0.003,0l0.213,0.123l0.222-0.104c1.495,0.101,3.008,0.345,4.387-0.518
			c-0.007,0.008-0.015,0.012-0.021,0.021c1.298,0.101,2.59,0.158,3.754-0.594c0.001-0.001,0.003-0.001,0.004-0.002
			c1.774,0.143,3.372-0.413,4.901-1.245c2.965-0.025,5.649-1.218,8.042-2.672c11.792-7.165,22.756-15.4,30.526-27.067
			c8.897-13.36,12.851-28.662,16.31-44.071c5.098-22.713,6.604-45.837,7.242-69.017c0.483-17.501-1.478-34.809-5.538-51.837
			c-0.657-2.756-0.316-4.713,1.496-6.831C539.2,301.17,546.766,289.922,552.307,277.35z M460.136,284.77
			c4.151-2.692,8.533-1.087,12.743-0.436c5.876,0.909,10.813,4.071,15.483,7.62c0.014,0.001,0.029,0.002,0.043,0.002
			c1.782,1.973,3.7,3.843,5.291,5.961c1.19,1.584,3.584,2.429,3.306,4.993c0,0-0.001,0-0.001,0
			c-1.378,0.679-2.817,1.258-4.126,2.052c-6.253,3.795-12.903,4.66-19.921,2.801c-7.312-1.936-11.879-6.951-14.107-13.876
			C457.917,290.996,457.856,287.543,460.136,284.77z M506.273,428.2c-0.814,5.313-1.519,10.645-2.434,15.94
			c-3.493,20.221-12.523,37.246-29.267,49.556c-9.298,6.836-19.685,9.458-31.133,6.596c-0.625-0.156-1.286-0.172-1.935-0.232
			c-0.064-0.006-0.127-0.009-0.191-0.016c0,0,0,0,0,0c-11.625-3.246-18.131-12.13-23.917-21.808
			c-0.73-1.222-1.471-2.437-2.207-3.656c-0.03-0.079-0.055-0.158-0.085-0.237c-9.956-26.38-10.799-53.644-8.094-81.335
			c2.332-23.876,6.928-47.257,14.18-70.107c1.392-4.384,3.232-8.624,4.87-12.928c0.012-0.03,0.024-0.06,0.035-0.09
			c2.925-5.132,6.95-9.326,11.266-13.272c0.001,0.001,0.001,0.001,0.002,0.001c-0.001,0-0.001,0-0.002-0.001
			c1.334,0.996,0.148,2.768,1.183,3.856c1.348,13.816,14.773,28.513,29.597,32.068c8.481,2.034,17.044,2.412,25.543-0.12
			c0.067-0.02,0.133-0.032,0.2-0.052c5.069-0.289,9.78-2.067,14.5-3.688c2.263-0.777,2.861-0.15,3.154,2.027
			c1.023,7.605,1.327,15.268,1.149,22.894C512.103,378.589,510.063,403.474,506.273,428.2z"/>
		<g>
			<g>
				<path style="fill:#EBC532;" d="M358.605,376.207c-3.026-9.5-7.013-18.724-11.99-27.368c-1.816-3.154-3.801-6.254-5.951-9.241
					c0.232-0.514,0.33-1.058,0.147-1.624c-5.808-17.952-24.795-26.371-42.396-27.164c-12.222-0.551-24.922,2.546-35.831,7.973
					c-1.071,0.533-2.118,1.101-3.163,1.672c-0.321,0.132-0.645,0.26-0.964,0.394c-11.092,4.664-21.259,11.665-29.589,20.337
					c-7.484,7.791-13.163,17.466-17.263,27.418c-8.29,20.121-10.399,42.487-10.423,64.067c-0.022,20.051,2.492,40.361,9.118,59.354
					c6.552,18.777,17.531,36.243,33.156,48.774c8.682,6.962,19.134,12.335,30.164,14.254c13.807,2.402,28.276-0.352,40.866-6.298
					c10.235-4.835,19.28-11.878,26.303-20.771c6.13-7.762,10.887-16.72,14.312-25.982c5.513-14.905,7.685-31.127,7.654-47.105
					c1.214-6.204,2.06-12.481,2.53-18.783C366.791,415.934,364.756,395.517,358.605,376.207z M319.832,509.441
					c-4.427,7.244-9.429,14.26-15.302,20.398c-0.408,0.426-0.819,0.847-1.236,1.263c-0.063,0.063-0.127,0.125-0.191,0.188
					c-0.809,0.735-1.616,1.468-2.457,2.167c-0.862,0.716-1.747,1.403-2.652,2.063c-0.378,0.242-0.752,0.487-1.137,0.719
					c-0.262,0.156-0.681,0.318-1.025,0.507c-0.187,0.022-0.374,0.046-0.561,0.067c-0.568,0.011-1.137,0.01-1.706-0.01
					c-0.066-0.002-0.131-0.007-0.196-0.01c-0.43-0.081-1.433-0.148-1.554-0.168c-2.077-0.334-4.104-0.883-6.087-1.573
					c-8.687-3.536-15.958-9.827-22.025-16.888c-8.873-10.738-15.516-23.476-20.608-36.388c-5.318-13.484-8.823-27.676-10.463-42.075
					c-0.897-7.877-1.216-15.81-0.998-23.733c0.718-18.854,4.509-37.813,11.978-55.179c1.887-4.387,4.041-8.652,6.458-12.77
					c2.727-4.435,5.767-8.677,9.23-12.569c0.875-0.983,1.774-1.944,2.699-2.88c0.491-0.496,2.334-2.066,0.203-0.236
					c0.583-0.501,1.13-1.047,1.707-1.555c0.922-0.812,1.867-1.6,2.833-2.359c0.483-0.379,0.971-0.752,1.465-1.117
					c0.174-0.129,0.351-0.255,0.527-0.382c0.281-0.174,0.562-0.348,0.84-0.527c0.286-0.079,0.563-0.154,0.723-0.195
					c0.056-0.014,0.112-0.026,0.167-0.039c-0.312,0.846-0.134,1.669,0.846,2.382c10.108,7.365,19.263,15.951,27.362,25.476
					c10.124,12.167,18.504,25.744,24.888,40.226c6.467,14.672,10.905,30.247,13.067,46.138c0.952,6.995,1.438,14.046,1.486,21.102
					c-2.29,11.457-5.836,22.659-10.65,33.321C325.196,499.823,322.639,504.705,319.832,509.441z"/>
				<path style="fill:#EBC532;" d="M295.52,536.858c-0.029,0.007-0.057,0.014-0.085,0.022c0.036-0.007,0.072-0.015,0.107-0.024
					C295.534,536.857,295.527,536.858,295.52,536.858z"/>
			</g>
			<path d="M300.232,531.363c-14.264-1.692-25.456-13.285-33.363-24.371c-9.236-12.95-16.081-27.745-20.808-42.899
				c-9.566-30.667-10.261-64.46-0.821-95.259c4.839-15.787,12.614-31.395,26.513-41.028c1.664-1.153,2.275-3.729,0.278-4.843
				c-2.266-1.263-5.134-0.128-7.048,1.199c-13.323,9.233-21.945,23.71-27.333,38.724c-5.619,15.661-8.532,32.396-8.998,49.009
				c-0.953,33.999,8.372,68.341,27.169,96.756c9.7,14.663,23.206,27.612,41.349,29.764c2.247,0.267,5.39-1.288,6.277-3.421
				C304.443,532.603,302.158,531.592,300.232,531.363z"/>
			<path d="M318.977,334.125c-1.289-1.138-5.066,0.504-6.339,1.069c-0.759,0.336-4.063,1.826-2.786,2.954
				c13.645,12.046,23.105,28.389,26.949,46.166c0.398,1.839,10.269-0.925,9.739-3.376
				C342.621,362.815,332.866,346.386,318.977,334.125z"/>
			<path d="M353.536,403.458c-0.001-0.019-0.002-0.039-0.004-0.059c0.089-0.4,0.003-0.74-0.256-1.02
				c-0.022-0.044-0.061-0.068-0.086-0.108c-0.383-1.163-0.873-2.29-1.502-3.344c-0.138-0.388-0.389-0.658-0.751-0.81
				c-0.376-0.275-0.803-0.425-1.284-0.45c-1.163-0.18-2.61,0.062-3.695,0.467c-1.139,0.424-2.379,0.987-3.191,1.921
				c-0.448,0.515-1.256,1.515-0.818,2.25c0.84,1.407,1.435,2.929,1.829,4.505c0.113,1.775,0.226,3.549,0.339,5.324
				c-0.089,0.4-0.003,0.74,0.256,1.02c0.183,0.363,0.482,0.603,0.898,0.722c0.946,0.411,2.337,0.343,3.306,0.132
				c1.283-0.28,2.617-0.74,3.665-1.551c0.718-0.556,1.604-1.292,1.724-2.259C354.241,407.953,354.09,405.653,353.536,403.458z"/>
		</g>
		<g>
			<path style="fill:#DFA6A8;" d="M992.889,247.472c-1.044-0.977-2.55-1.665-3.832-1.808c-8.494-0.943-17.063-1.287-25.613-1.018
				c-1.126-0.55-2.435-0.826-2.455-0.23c-0.004,0.106-0.007,0.212-0.011,0.318c-1.163,0.053-2.325,0.113-3.486,0.19
				c-1.746,0.115-2.806,1.298-2.12,2.869c0.319,0.731,0.912,1.382,1.626,1.914c-1.533-0.066-3.991,0.114-4.115,1.614
				c-1.544,18.603-2.426,37.251-2.631,55.907c-0.205,18.655,0.26,37.317,1.397,55.943c0.614,10.054,1.431,20.098,2.434,30.125
				c-1.937,15.628-3.874,31.256-5.811,46.883c-0.924,7.452-1.847,14.903-2.771,22.355c-0.201,1.62,1.079,3.621,1.945,4.954
				c0.468,0.72,0.956,1.521,1.648,2.077c0.199,0.159,0.82,0.612,0.888,0.064c0.673-5.428,1.346-10.856,2.018-16.283
				c-0.004,3.628,0.015,7.256,0.079,10.884c0.02,1.101,1.403,1.071,2.555,0.851c0.107,1.5,3.06,1.347,4.108,1.086
				c0.98-0.244,2.185-0.693,3.128-1.364c0.634,0.414,1.314,0.728,1.899,0.897c1.542,0.445,4.23,0.612,4.505-1.405
				c3.771-27.689,7.542-55.378,11.313-83.067c3.771-27.689,7.542-55.378,11.313-83.067c2.108-15.477,4.216-30.955,6.324-46.433
				C997.492,249.769,995.072,248.046,992.889,247.472z M976.156,278.308c0.065-2.336,0.112-4.673,0.165-7.009
				c0.345-1.483,0.689-2.966,1.055-4.445c0.12-0.486,0.254-0.969,0.376-1.454c0.056,11.269-0.511,22.539-1.718,33.756
				c-0.202,0.073-0.411,0.154-0.622,0.24C975.709,292.369,975.96,285.339,976.156,278.308z M967.03,267.471
				c-0.534,6.926-1.041,13.853-1.52,20.782c-0.081-2.049-0.154-4.098-0.219-6.147C965.581,277.204,966.16,272.317,967.03,267.471z
				 M961.895,341.404c0.139-10.856,0.616-21.704,0.971-32.555c0.059-0.052,0.101-0.116,0.104-0.208l0.013-0.383
				c0.292,0.274,0.716,0.547,1.176,0.781c-0.751,12.275-1.401,24.555-1.981,36.838c-0.104,0.548-0.212,1.095-0.314,1.644
				C961.861,345.482,961.87,343.442,961.895,341.404z M977.411,332.067l-6.167,45.28c-0.255-0.344-0.689-0.546-1.215-0.653
				c0.227-3.004,0.454-6.008,0.681-9.012c0.154-0.233,0.259-0.497,0.286-0.802c1.174-13.254,2.16-26.521,2.974-39.797
				c0.627-2.843,1.271-5.683,1.938-8.519c0.351,0.043,0.694,0.024,0.999-0.107c0.932-0.402,1.016-1.502,1.146-2.314
				c0.712-4.465,1.308-8.944,1.821-13.432c0.294-1.11,0.574-2.223,0.875-3.331c0.119-0.439-0.08-0.686-0.432-0.817
				c0.969-9.67,1.489-19.379,1.516-29.09c0.014-4.887-0.101-9.773-0.324-14.655c2.171-0.223,4.342-0.447,6.513-0.67
				C984.486,280.122,980.948,306.095,977.411,332.067z"/>
			<path style="fill:#DFA6A8;" d="M964.507,490.46c0.409-2.359-3.118-2.413-4.793-2.314c-2.426,0.143-4.851,0.285-7.277,0.428
				c1.601-0.401,3.19-1.201,3.849-2.581c0.835-1.747-1.168-2.717-2.814-2.573c-2.405,0.211-4.81,0.423-7.215,0.635
				c-2.626,0.231-5.489,0.208-7.968,1.113c-1.686,0.616-3.37,1.684-4.211,3.215c-0.495,0.901-0.636,1.921-0.736,2.913
				c-0.223,2.199-0.373,4.405-0.463,6.611c-0.18,4.415-0.098,8.838,0.241,13.244c0.169,2.203,0.403,4.402,0.703,6.593
				c0.224,1.637,0.46,3.299,1.427,4.722c1.446,2.13,3.774,2.817,6.398,2.889c0.977,0.027,1.944-0.091,2.917-0.148
				c0.21-0.012,0.43,0.002,0.637-0.026c0.034,0,0.046-0.001,0.071-0.001c0.028,0.012,0.11,0.038,0.188,0.06
				c0.2,0.111,0.422,0.243,0.166,0.056c1.634,1.193,4.293,0.67,5.943-0.259c0.684-0.385,1.99-1.381,2.343-2.371
				c0.287-0.089,0.571-0.187,0.838-0.309c0.086,0.003,0.18,0.01,0.257,0.009c1.818-0.007,3.688-0.436,5.011-1.642
				c3.852-3.511,5.039-8.579,5.105-13.415C965.199,501.701,963.537,496.056,964.507,490.46z M945.519,519.895
				c-0.216,0.012-0.431,0.016-0.648,0.024c-0.021,0.001-0.067-0.001-0.118-0.004c-0.056-0.008-0.108-0.016-0.126-0.021
				c-0.052-0.013-0.075-0.017-0.113-0.025c-0.018-0.01-0.026-0.017-0.059-0.033c-0.109-0.052-0.147-0.065-0.149-0.06
				c-0.103-0.077-0.203-0.16-0.292-0.241c-0.104-0.094-0.2-0.196-0.292-0.3c-0.024-0.027-0.036-0.04-0.051-0.056
				c-0.011-0.02-0.021-0.037-0.042-0.069c-0.359-0.573-0.581-1.222-0.751-1.862c-0.423-1.594-0.536-3.268-0.704-4.896
				c-0.772-7.513-0.897-15.202-0.039-22.721c0.385-0.038,0.77-0.079,1.154-0.112c0.466-0.041,0.932-0.082,1.397-0.123
				c-0.929,0.362-1.779,0.917-2.054,1.676c-0.514,1.419,1.334,2.012,2.447,2.282c0.733,0.177,1.467,0.355,2.2,0.533
				c-2.187,1.786-3.828,4.129-4.443,6.787c-0.38,1.638,1.638,2.266,3.135,2.363c0.834,5.544,1.296,11.13,1.41,16.729
				C946.76,519.8,946.141,519.86,945.519,519.895z M955.112,502.041c-0.252-1.68-0.53-3.358-0.847-5.03
				c-0.035-0.184-0.105-0.346-0.194-0.497c0.175-0.182,0.348-0.365,0.53-0.542c0.07-0.061,0.123-0.108,0.163-0.144
				c0.138-0.105,0.277-0.208,0.42-0.307c0.036,2.195,0.257,4.382,0.462,6.576C955.466,502.072,955.289,502.053,955.112,502.041z"/>
			<g>
				<path style="fill:#C67379;" d="M995.204,247.554c-14.697-2.887-29.987-3.19-44.999-1.304c-1.858,0.234-4.818,1.274-4.838,3.026
					c-0.33,28.495-0.854,56.99-1.576,85.484c-0.722,28.494-1.64,56.988-2.755,85.478c-0.581,14.85-1.221,29.699-1.909,44.547
					c-0.849,0.098-0.956,0.976-0.819,1.458c0.136,0.479,0.388,0.926,0.693,1.352c-0.01,0.203-0.018,0.406-0.027,0.609
					c-0.041,0.88,1.339,1.586,2.176,1.884c0.117,0.042,0.256,0.067,0.38,0.104c0.437,0.352,0.893,0.687,1.379,0.984
					c1.062,0.649,2.35,1.459,3.728,1.613c4.896,0.548,10.326,1.212,15.115-0.21c0.054-0.016,0.108-0.035,0.162-0.051l5.467-0.187
					c0.984-0.034,1.045-0.961,0.932-1.475c-0.099-0.45-0.36-0.928-0.685-1.388c1.106-1.011,1.921-2.211,2.301-3.608
					c0.086-0.315,0.012-0.679-0.138-1.043c0.15-0.252,0.251-0.527,0.288-0.831c3.39-27.919,6.916-55.829,10.581-83.729
					c3.665-27.901,7.467-55.791,11.407-83.672c2.204-15.602,4.453-31.2,6.743-46.795
					C999.002,248.483,996.355,247.78,995.204,247.554z M973.168,334.242c-3.819,27.89-7.5,55.789-11.043,83.698
					c-1.834,14.442-3.626,28.887-5.386,43.335c-0.432,0.04-0.837,0.09-1.189,0.145c-0.851,0.133-1.701,0.266-2.552,0.4
					c1.223-26.628,2.284-53.259,3.165-79.891c0.942-28.493,1.689-56.987,2.238-85.482c0.292-15.134,0.523-30.268,0.704-45.401
					c1.107-0.081,2.216-0.153,3.325-0.204c0.484-0.022,4.677-0.304,4.737-0.13c-0.874,0-1.047,0.001-0.522,0.002
					c0.176,0,0.351,0,0.526,0.002c0.439,0.003,0.877,0.007,1.316,0.015c0.789,0.013,1.578,0.034,2.367,0.062
					c1.577,0.056,3.151,0.142,4.722,0.258c0.785,0.058,1.569,0.123,2.352,0.195c0.348,0.033,0.696,0.066,1.043,0.101
					c0.206,0.021,1.559,0.287,0.727,0.075c-0.739-0.188,0.281,0.037,0.465,0.06c0.432,0.054,0.864,0.11,1.295,0.169
					c0.776,0.105,1.55,0.219,2.323,0.339c0.345,0.054,0.688,0.116,1.032,0.173C980.8,279.512,976.916,306.872,973.168,334.242z"/>
				<path style="fill:#C67379;" d="M966.31,483.073c-2.318-0.643-4.816,0.134-6.913,1.045c-0.476,0.207-0.952,0.428-1.427,0.655
					c-2.715-0.069-5.43-0.14-8.145-0.207c-1.041-0.025-2.088-0.025-3.12,0.133c-2.498,0.381-4.954,1.637-7.066,2.868
					c-2.736,1.593-6.029,3.569-6.912,6.645c-0.524,1.823-0.526,3.827-0.596,5.699c-0.081,2.163-0.075,4.327,0.052,6.488
					c0.13,2.224,0.377,4.441,0.741,6.642c0.298,1.807,0.433,4.049,1.469,5.649c1.051,1.625,3.265,1.923,5.135,1.964
					c2.353,0.052,4.708,0.045,7.061,0.067c2.038,0.019,4.096,0.116,6.13-0.044c2.951-0.233,5.589-1.155,8.2-2.446
					c2.307-1.14,4.565-2.523,6.483-4.176c0.968-0.834,1.876-1.814,2.371-2.963c0.786-1.825,0.607-4.04,0.711-5.967
					c0.238-4.408,0.606-8.829,0.681-13.242C971.224,488.338,970.509,484.237,966.31,483.073z M952.149,513.613
					c-1.549-0.015-3.138,0.052-4.615-0.43c-1.292-0.678-1.814-1.813-2.138-3.144c-0.409-1.681-0.699-3.395-0.942-5.103
					c-0.493-3.474-0.687-6.975-0.613-10.477c0.024-0.895,0.049-1.799,0.109-2.703c1.854,0.047,3.709,0.094,5.563,0.141
					c0.148,0.257,0.714,0.217,1.426,0.036c0.864,0.022,1.728,0.044,2.591,0.066c1.042,0.026,2.244-0.49,3.146-0.871
					c0.099-0.042,0.198-0.091,0.298-0.134c2.197,1.805,2.484,4.998,2.439,7.643c-0.119,3.347-0.349,6.694-0.53,10.038
					c-0.09,1.668-0.173,3.337-0.27,5.004c-0.365-0.006-0.731-0.012-1.095-0.016C955.728,513.646,953.938,513.629,952.149,513.613z"
					/>
			</g>
		</g>
		<path d="M868.191,480.683c-2.259-17.026-13.383-33.146-25.537-47.642c-13.881-16.558-29.728-32.189-39.444-50.496
			c-5.689-11.387-8.802-23.52-6.076-35.074c1.353-4.506,3.589-8.547,7.131-12.069c2.338-1.977,4.96-3.66,7.81-5.172
			c0.238-0.105,0.475-0.21,0.716-0.311c0.866-0.362,1.748-0.703,2.645-1.021c0.693-0.246,1.401-0.464,2.109-0.685
			c0.174-0.044,0.349-0.089,0.525-0.129c0.812-0.189,1.637-0.351,2.464-0.505c0.524-0.058,1.051-0.1,1.578-0.144
			c0.284,0.023,0.569,0.049,0.853,0.075c0.233,0.045,0.465,0.093,0.698,0.141c0.576,0.173,1.151,0.352,1.719,0.553
			c0.186,0.066,0.368,0.138,0.551,0.207c1.474,0.7,2.848,1.523,4.16,2.412c2.162,1.774,3.971,3.758,5.41,5.94
			c1.249,1.893,6.18,3.068,8.247,3.485c4.146,0.836,9.096,1.044,13.162,0.566c4.181-0.491,14.325-2.116,10.956-7.222
			c-9.059-13.733-30.584-18.019-47.526-17.864c-18.837,0.173-37.265,5.163-48.993,16.358c-5.147,4.912-7.487,11.075-8.656,17.562
			c-1.331,7.381-0.314,15.096,2.167,22.56c5.301,15.945,16.272,30.64,28.262,44.358c12.551,14.359,26.138,28.523,34.702,44.562
			c6.196,12.419,8.367,25.29,5.394,37.793c-2.604,9.204-7.733,17.659-15.143,24.704c-3.14,2.739-6.575,5.198-10.448,7.284
			c-0.245,0.108-0.489,0.218-0.738,0.322c-1.055,0.441-2.134,0.85-3.233,1.226c-0.442,0.152-0.887,0.298-1.335,0.44
			c-0.093,0.029-0.22,0.068-0.359,0.108c-0.536,0.132-1.075,0.258-1.617,0.376c-0.785,0.172-1.578,0.316-2.372,0.461
			c-0.285,0.034-0.569,0.072-0.856,0.103c-0.513,0.054-1.028,0.101-1.543,0.144c-0.437,0.007-0.875,0.016-1.314,0.015
			c-0.037,0-0.074-0.001-0.11-0.002c-0.669-0.055-1.338-0.112-2.007-0.178c-0.537-0.098-1.072-0.204-1.606-0.319
			c-0.052-0.011-0.117-0.026-0.187-0.041c-0.02-0.006-0.044-0.012-0.062-0.018c-0.579-0.173-1.155-0.357-1.725-0.551
			c-0.409-0.141-0.811-0.295-1.214-0.445c-1.506-0.707-2.938-1.506-4.289-2.397c-2.573-2.055-4.61-4.416-6.086-7.031
			c-0.071-0.156-0.151-0.31-0.218-0.467c-0.95-2.193-2.819-3.211-5.496-4.13c-3.684-1.264-8.427-1.759-12.226-1.694
			c-3.974,0.068-8.341,0.314-11.795,1.736c-1.596,0.658-5.306,2.178-4.453,4.148c2.904,6.706,8.389,12.339,16.292,15.949
			c11.101,5.071,23.294,6.865,35.435,7.132c11.536,0.254,23.017-1.466,33.32-4.807c9.534-3.092,17.01-8.228,23.502-14.374
			C864.152,514.477,870.409,497.4,868.191,480.683z"/>
	</g>
</g>
</svg>
